<?xml version="1.0" encoding="utf-8"?><svg width="32" height="32" xmlns="http://www.w3.org/2000/svg" viewBox="0 0 32 32"><path d="M16 19.3l2.567 1.533c.244.156.483.15.717-.016.234-.166.317-.394.25-.684l-.667-2.9 2.266-1.966c.223-.2.29-.439.2-.716-.089-.278-.289-.428-.6-.451l-2.966-.233L16.6 11.1a.6.6 0 00-.6-.4.6.6 0 00-.6.4l-1.167 2.767-2.966.233c-.311.022-.511.172-.6.45-.09.279-.023.518.2.717l2.266 1.966-.666 2.9c-.067.29.017.517.25.684.234.167.473.173.716.016L16 19.3zm-4.467 7.367H8c-.733 0-1.36-.261-1.883-.783A2.573 2.573 0 015.333 24v-3.533l-2.566-2.6a2.998 2.998 0 01-.567-.883A2.55 2.55 0 012 16c0-.334.067-.662.2-.983a3.04 3.04 0 01.567-.884l2.566-2.6V8c0-.733.262-1.36.784-1.883A2.574 2.574 0 018 5.333h3.533l2.6-2.566c.267-.245.562-.434.884-.567.323-.133.65-.2.983-.2.332 0 .66.067.984.2.324.133.618.322.883.567l2.6 2.566H24a2.57 2.57 0 011.884.784c.523.523.784 1.15.783 1.883v3.533l2.566 2.6c.245.267.434.562.567.884.133.323.2.65.2.983 0 .332-.067.66-.2.984a2.95 2.95 0 01-.567.883l-2.566 2.6V24c0 .733-.261 1.361-.783 1.884a2.561 2.561 0 01-1.884.783h-3.533l-2.6 2.566c-.267.245-.561.434-.883.567-.322.133-.65.2-.984.2a2.54 2.54 0 01-.983-.2 3.038 3.038 0 01-.884-.567l-2.6-2.566z"/></svg>