<?xml version="1.0" encoding="utf-8"?><svg width="32" height="32" xmlns="http://www.w3.org/2000/svg" viewBox="0 0 32 32"><path d="M16.002 13.333a5.333 5.333 0 100-10.667 5.333 5.333 0 000 10.667zm-8.667 4a3.334 3.334 0 100-6.667 3.334 3.334 0 000 6.667zM28.002 14a3.334 3.334 0 11-6.667 0 3.334 3.334 0 016.667 0zm-12 .667a6.666 6.666 0 016.666 6.666v8H9.333v-8a6.667 6.667 0 016.668-6.666zm-9.334 6.666c0-.924.133-1.816.384-2.658l-.227.018a4.667 4.667 0 00-4.157 4.64v6h4v-8zm22.666 8v-6a4.667 4.667 0 00-4.383-4.658c.249.842.384 1.734.383 2.658v8h4z"/></svg>