<?xml version="1.0" encoding="utf-8"?><svg width="32" height="10" fill="none" xmlns="http://www.w3.org/2000/svg" viewBox="0 0 32 10"><path d="M14.737 2.529c.788 0 1.472.145 2.052.435.589.28 1.037.684 1.345 1.21.317.525.476 1.14.476 1.847v.136c0 .707-.159 1.327-.476 1.862a3.204 3.204 0 01-1.345 1.223c-.58.28-1.264.421-2.052.421-.96 0-1.753-.25-2.378-.747l-.054.584H10.47V.042h1.97v3.18c.635-.462 1.4-.693 2.297-.693zm1.835 3.492c0-.534-.186-.951-.557-1.25-.372-.299-.893-.448-1.563-.448-.426 0-.82.068-1.182.203-.354.136-.63.322-.83.558v2.01c.209.236.49.427.843.571a3.23 3.23 0 001.169.204c.67 0 1.191-.15 1.563-.448.37-.3.557-.72.557-1.264v-.136zM9.293 2.692v1.74H7.77c-.852 0-1.45.212-1.794.638V9.5H4.02V2.692h1.835l.054.625c.57-.417 1.277-.625 2.12-.625h1.264zM2.052.586V9.5H0V.586h2.052zM27.677 9.663c-1.277 0-2.274-.2-2.99-.598-.706-.408-1.06-.983-1.06-1.726v-.068h1.89v.068c0 .254.172.44.516.557.344.11.901.164 1.671.164 1.268 0 1.903-.182 1.903-.544v-.068c0-.136-.082-.24-.245-.312-.163-.073-.457-.127-.883-.164l-1.753-.176c-1.006-.1-1.74-.308-2.202-.625-.462-.317-.693-.766-.693-1.346V4.69c0-.679.335-1.209 1.006-1.59.68-.38 1.622-.57 2.826-.57 1.25 0 2.21.2 2.881.598.67.398 1.006.974 1.006 1.726v.081H29.66v-.081c0-.254-.163-.435-.49-.544-.316-.118-.837-.177-1.562-.177-.589 0-1.042.041-1.359.123-.317.081-.476.199-.476.353v.081c0 .136.073.24.218.313.154.072.403.127.747.163l1.78.177c1.07.108 1.844.321 2.324.638.49.318.734.775.734 1.373v.136c0 .688-.344 1.223-1.033 1.603-.688.38-1.644.571-2.867.571z" fill="#1F5DEF"/><path d="M19.894 0h1.9v1.9h-1.9V0z" fill="#0BF"/><path d="M21.794 2.66V9.5h-1.9V2.66h1.9z" fill="#1F5DEF"/></svg>