<?xml version="1.0" encoding="utf-8"?><svg width="131" height="47" fill="none" xmlns="http://www.w3.org/2000/svg" viewBox="0 0 131 47"><g clip-path="url(#hclip0_259_2725)"><path d="M122.701 0H8.299C3.715 0 0 3.815 0 8.52v29.96C0 43.185 3.715 47 8.299 47H122.7c4.584 0 8.299-3.815 8.299-8.52V8.52c0-4.705-3.715-8.52-8.299-8.52z" fill="#000"/><path d="M22.773 26.819h.476c.595 0 1.074-.506 1.074-1.13v-8.79a.3.3 0 01.293-.306H40.48a.3.3 0 01.294.306v8.79c0 .624.483 1.13 1.074 1.13h.47c.596 0 1.075-.506 1.075-1.13V14.965c0-.624-.484-1.13-1.074-1.13H22.773c-.595 0-1.074.505-1.074 1.13v10.722c0 .625.484 1.13 1.074 1.13zM66.002 22.857c.31.784.741 1.482 1.283 2.065a6.112 6.112 0 001.905 1.39c.728.338 1.514.511 2.335.511h14.048c.578 0 1.044-.506 1.044-1.13v-.497c0-.625-.466-1.13-1.044-1.13H71.525c-.475 0-.923-.101-1.336-.293a3.595 3.595 0 01-1.101-.806 3.867 3.867 0 01-1.017-2.635c0-.515.088-.999.27-1.445.183-.456.436-.857.747-1.19.31-.337.679-.607 1.1-.807a3.065 3.065 0 011.333-.292h14.048c.577 0 1.043-.506 1.043-1.13v-.497c0-.625-.466-1.13-1.043-1.13H71.521c-.817 0-1.603.172-2.336.51a6.062 6.062 0 00-1.909 1.39 6.58 6.58 0 00-1.283 2.065 6.781 6.781 0 00-.475 2.526c0 .884.16 1.737.475 2.525h.009zM90.663 26.819h.418c.563 0 1.02-.506 1.02-1.13v-3.684c0-.169.125-.306.276-.306h5.541c.045 0 .094.014.133.037l8.13 4.914a.946.946 0 00.48.137l1.927.027c.293.01.573-.223.648-.552.076-.323-.058-.665-.315-.82l-7.61-4.846a5.961 5.961 0 01-.449-.287c.111-.064.253-.142.382-.214l7.703-4.878c.267-.16.4-.502.325-.825-.076-.329-.342-.556-.644-.556h-1.852a.944.944 0 00-.488.136l-8.24 4.946a.279.279 0 01-.134.037h-5.541c-.151 0-.276-.137-.276-.305v-3.684c0-.624-.457-1.13-1.02-1.13h-.418c-.564 0-1.021.505-1.021 1.13v10.722c0 .625.457 1.13 1.02 1.13h.005zM53.663 22.77l-2.229 2.111c-.346.333-.373.775-.248 1.227a.937.937 0 00.905.692h.977c.32 0 .635-.123.861-.337l11.016-10.549a1.06 1.06 0 00.249-1.226c-.191-.429-.617-.693-1.11-.693h-.773a1.24 1.24 0 00-.861.342l-6.727 6.46-7.335-6.57a1.25 1.25 0 00-.83-.314h-.737c-.493 0-.932.278-1.115.707-.186.428-.075.916.285 1.235l7.676 6.92-.004-.004zM108.586 33.496H87.802c-.253-1.02-1.145-1.778-2.22-1.778-.919 0-1.71.557-2.078 1.354H23.057c-.626 0-1.132.52-1.132 1.163 0 .642.506 1.162 1.132 1.162h60.616a2.283 2.283 0 001.905 1.044c.959 0 1.776-.606 2.122-1.468h20.882a.729.729 0 00.719-.738c0-.41-.32-.739-.719-.739h.004z" fill="#fff"/></g><defs><clipPath id="hclip0_259_2725"><path fill="#fff" d="M0 0h131v47H0z"/></clipPath></defs></svg>