<?xml version="1.0" encoding="utf-8"?><svg width="24" height="24" xmlns="http://www.w3.org/2000/svg" viewBox="0 0 24 24"><path fill-rule="evenodd" clip-rule="evenodd" d="M7.95 16.052c4.237 4.236 8.163 4.7 9.315 4.743 1.393.05 2.815-1.087 3.43-2.25-.981-1.151-2.258-2.043-3.657-3.01-.825.823-1.842 2.355-3.196 1.806-.77-.31-2.672-1.185-4.334-2.848-1.661-1.662-2.537-3.562-2.85-4.331-.548-1.356.988-2.375 1.813-3.2C7.504 5.54 6.627 4.23 5.48 3.3c-1.181.617-2.325 2.027-2.273 3.438.043 1.152.506 5.077 4.744 9.314zm9.234 6.945c-1.587-.058-6.084-.68-10.793-5.387-4.708-4.708-5.328-9.203-5.388-10.79C.915 4.4 2.768 2.05 4.909 1.132a1.62 1.62 0 011.592.175C8.273 2.6 9.495 4.558 10.545 6.09A1.657 1.657 0 0110.35 8.2L8.856 9.694c.347.765 1.053 2.085 2.21 3.242 1.157 1.156 2.477 1.863 3.244 2.21l1.493-1.494a1.653 1.653 0 012.114-.189c1.564 1.084 3.402 2.288 4.742 4.004a1.618 1.618 0 01.208 1.636c-.922 2.151-3.256 3.983-5.683 3.894z"/></svg>