<?xml version="1.0" encoding="utf-8"?><svg width="24" height="24" xmlns="http://www.w3.org/2000/svg" viewBox="0 0 24 24"><path fill-rule="evenodd" clip-rule="evenodd" d="M22.977 4.031c.05-.308.018-.624-.093-.916a1.746 1.746 0 00-.538-.74 1.689 1.689 0 00-1.73-.238L1.05 10.524c-1.364.585-1.433 2.593 0 3.199 1.42.602 2.86 1.153 4.319 1.651 1.336.45 2.794.866 3.962.984.32.389.721.764 1.131 1.106a24.901 24.901 0 002.157 1.58c1.559 1.037 3.287 2.029 4.452 2.674 1.393.769 3.06-.116 3.31-1.662L22.977 4.03zm-19.734 8.08l17.306-7.417-2.424 14.957c-1.143-.633-2.79-1.58-4.256-2.556a22.893 22.893 0 01-1.956-1.432 9.138 9.138 0 01-.487-.435l4.532-4.613c.215-.219.336-.515.336-.824 0-.309-.12-.605-.335-.824a1.134 1.134 0 00-1.619 0l-4.963 5.051c-.84-.109-2.009-.426-3.293-.857a55.476 55.476 0 01-2.84-1.05h-.001z"/></svg>