<?xml version="1.0" encoding="utf-8"?><svg width="24" height="24" xmlns="http://www.w3.org/2000/svg" viewBox="0 0 24 24"><path fill-rule="evenodd" clip-rule="evenodd" d="M19.794 4.197A10.907 10.907 0 0012.046 1C6.008 1 1.094 5.89 1.092 11.9a10.838 10.838 0 001.462 5.45L1 23l5.807-1.516c1.6.869 3.401 1.326 5.234 1.327h.005c6.037 0 10.952-4.89 10.954-10.901a10.808 10.808 0 00-3.206-7.713zM12.046 20.97h-.003a9.127 9.127 0 01-4.635-1.263l-.332-.197-3.446.9.92-3.344-.217-.343a9.006 9.006 0 01-1.392-4.822c.002-4.995 4.087-9.06 9.109-9.06a9.065 9.065 0 016.437 2.657 8.983 8.983 0 012.664 6.41c-.003 4.997-4.087 9.061-9.105 9.061zm4.994-6.786c-.273-.136-1.62-.795-1.87-.886-.251-.091-.434-.136-.616.136-.182.273-.707.887-.866 1.068-.16.182-.32.205-.593.068-.274-.136-1.156-.424-2.202-1.352-.813-.722-1.363-1.614-1.522-1.887-.16-.272-.017-.42.12-.555.122-.123.273-.319.41-.477.137-.16.182-.273.274-.455.091-.182.045-.34-.023-.477-.068-.136-.615-1.477-.844-2.022-.222-.531-.448-.46-.615-.468-.16-.008-.342-.01-.525-.01s-.48.068-.73.341c-.251.273-.958.932-.958 2.272 0 1.34.98 2.637 1.118 2.819.137.181 1.93 2.932 4.675 4.113.653.28 1.163.448 1.56.574.656.207 1.253.178 1.724.108.526-.079 1.62-.66 1.848-1.296.228-.636.228-1.181.16-1.295-.069-.113-.252-.182-.525-.318v-.001z"/></svg>