<svg width="32" height="32" viewBox="0 0 32 32" xmlns="http://www.w3.org/2000/svg">
<path d="M16.0019 13.3333C17.4164 13.3333 18.773 12.7714 19.7732 11.7712C20.7735 10.771 21.3355 9.41445 21.3357 7.99996C21.3358 6.58547 20.774 5.22892 19.7739 4.22872C18.7738 3.22853 17.4173 2.66663 16.0028 2.66663C14.5883 2.66663 13.2317 3.22853 12.2314 4.22872C11.2311 5.22892 10.6691 6.58547 10.669 7.99996C10.6689 9.41445 11.2307 10.771 12.2308 11.7712C13.2309 12.7714 14.5874 13.3333 16.0019 13.3333ZM7.33487 17.3333C8.21893 17.3333 9.06681 16.9821 9.69198 16.357C10.3172 15.7319 10.6684 14.884 10.6685 14C10.6686 13.1159 10.3174 12.2681 9.69237 11.6429C9.0673 11.0178 8.21949 10.6666 7.33543 10.6666C6.45138 10.6666 5.6035 11.0178 4.97833 11.6429C4.35315 12.2681 4.00189 13.1159 4.00182 14C4.00175 14.884 4.35287 15.7319 4.97793 16.357C5.603 16.9821 6.45082 17.3333 7.33487 17.3333ZM28.0018 14C28.0017 14.884 27.6505 15.7319 27.0253 16.357C26.4001 16.9821 25.5523 17.3333 24.6682 17.3333C23.7842 17.3333 22.9363 16.9821 22.3113 16.357C21.6862 15.7319 21.3351 14.884 21.3352 14C21.3352 13.1159 21.6865 12.2681 22.3117 11.6429C22.9368 11.0178 23.7847 10.6666 24.6688 10.6666C25.5528 10.6666 26.4006 11.0178 27.0257 11.6429C27.6508 12.2681 28.0019 13.1159 28.0018 14ZM16.0018 14.6666C17.7699 14.6666 19.4655 15.369 20.7156 16.6192C21.9658 17.8695 22.668 19.5652 22.6679 21.3333L22.6672 29.3333H9.33387L9.33454 21.3333C9.33469 19.5652 10.0372 17.8695 11.2876 16.6192C12.5379 15.369 14.2337 14.6666 16.0018 14.6666ZM6.66787 21.3333C6.66795 20.4093 6.80136 19.5173 7.0521 18.6746L6.82543 18.6933C5.68259 18.8188 4.62626 19.3617 3.85898 20.218C3.09171 21.0743 2.6675 22.1836 2.66771 23.3333L2.66721 29.3333H6.66721L6.66787 21.3333ZM29.3339 29.3333L29.3344 23.3333C29.3346 22.1444 28.8811 21.0004 28.0665 20.1346C27.2518 19.2688 26.1374 18.7466 24.9508 18.6746C25.2 19.5173 25.3346 20.4093 25.3345 21.3333L25.3339 29.3333H29.3339Z"/>
</svg>
