<svg width="32" height="32" viewBox="0 0 32 32" xmlns="http://www.w3.org/2000/svg">
<path d="M31.8066 14.8556C28.7939 8.97722 22.8294 5 16 5C9.17053 5 3.20441 8.98 0.193303 14.8561C0.0662151 15.1075 0 15.3853 0 15.6669C0 15.9486 0.0662151 16.2264 0.193303 16.4778C3.20608 22.3561 9.17053 26.3333 16 26.3333C22.8294 26.3333 28.7955 22.3533 31.8066 16.4772C31.9337 16.2258 31.9999 15.9481 31.9999 15.6664C31.9999 15.3847 31.9337 15.1069 31.8066 14.8556ZM16 23.6667C14.4177 23.6667 12.871 23.1975 11.5554 22.3184C10.2398 21.4394 9.21443 20.1899 8.60893 18.7281C8.00343 17.2663 7.84501 15.6578 8.15369 14.1059C8.46237 12.5541 9.2243 11.1286 10.3431 10.0098C11.4619 8.89099 12.8874 8.12907 14.4392 7.82038C15.9911 7.5117 17.5996 7.67013 19.0614 8.27563C20.5232 8.88113 21.7727 9.90651 22.6517 11.2221C23.5308 12.5377 24 14.0844 24 15.6667C24.0005 16.7174 23.7939 17.7579 23.392 18.7287C22.9902 19.6996 22.4009 20.5817 21.658 21.3247C20.915 22.0676 20.0329 22.6569 19.062 23.0587C18.0912 23.4606 17.0507 23.6672 16 23.6667ZM16 10.3333C15.5239 10.34 15.051 10.4108 14.5939 10.5439C14.9706 11.0559 15.1515 11.686 15.1035 12.32C15.0555 12.9539 14.782 13.5496 14.3325 13.9992C13.8829 14.4487 13.2872 14.7222 12.6533 14.7702C12.0194 14.8182 11.3892 14.6373 10.8772 14.2606C10.5856 15.3348 10.6383 16.4734 11.0277 17.5161C11.4171 18.5588 12.1237 19.4532 13.0481 20.0733C13.9724 20.6934 15.068 21.008 16.1805 20.9729C17.293 20.9377 18.3665 20.5546 19.2499 19.8774C20.1333 19.2002 20.782 18.263 21.1049 17.1978C21.4277 16.1325 21.4084 14.9929 21.0496 13.9392C20.6908 12.8855 20.0106 11.9709 19.1048 11.3241C18.1989 10.6772 17.113 10.3307 16 10.3333Z"/>
</svg>
