<svg width="32" height="10" viewBox="0 0 32 10" fill="none" xmlns="http://www.w3.org/2000/svg">
<path d="M14.7371 2.52882C15.5253 2.52882 16.2093 2.67377 16.7891 2.96367C17.3779 3.24451 17.8264 3.64765 18.1344 4.17309C18.4515 4.69854 18.61 5.31457 18.61 6.0212V6.15709C18.61 6.86372 18.4515 7.48429 18.1344 8.01879C17.8173 8.54424 17.3689 8.95191 16.7891 9.24181C16.2093 9.52265 15.5253 9.66307 14.7371 9.66307C13.7768 9.66307 12.9841 9.41394 12.359 8.91567L12.3047 9.5H10.4701V0.0420226H12.4406V3.22186C13.0747 2.75983 13.8402 2.52882 14.7371 2.52882ZM16.5716 6.0212C16.5716 5.4867 16.3859 5.06997 16.0145 4.77101C15.643 4.47205 15.1221 4.32257 14.4517 4.32257C14.0259 4.32257 13.6319 4.39052 13.2695 4.52641C12.9162 4.6623 12.6399 4.84802 12.4406 5.08356V7.09474C12.6489 7.33028 12.9298 7.52053 13.2831 7.66548C13.6364 7.80137 14.0259 7.86931 14.4517 7.86931C15.1221 7.86931 15.643 7.71983 16.0145 7.42088C16.3859 7.12192 16.5716 6.70066 16.5716 6.15709V6.0212Z" fill="#1F5DEF"/>
<path d="M9.29257 2.69189V4.43128H7.7706C6.91902 4.43128 6.3211 4.64418 5.97685 5.06997V9.5H4.02002V2.69189H5.85454L5.9089 3.31698C6.47964 2.90025 7.18627 2.69189 8.02879 2.69189H9.29257Z" fill="#1F5DEF"/>
<path d="M2.05195 0.585585V9.5H0V0.585585H2.05195Z" fill="#1F5DEF"/>
<path d="M27.677 9.66307C26.3996 9.66307 25.4031 9.46376 24.6874 9.06515C23.9808 8.65748 23.6275 8.08221 23.6275 7.33934V7.2714H25.5163V7.33934C25.5163 7.593 25.6885 7.77872 26.0327 7.89649C26.377 8.0052 26.9341 8.05956 27.7042 8.05956C28.9725 8.05956 29.6066 7.87837 29.6066 7.516V7.44805C29.6066 7.31216 29.5251 7.20798 29.362 7.13551C29.199 7.06303 28.9045 7.00867 28.4787 6.97244L26.7258 6.79578C25.7202 6.69613 24.9864 6.48776 24.5243 6.17068C24.0623 5.85361 23.8313 5.40517 23.8313 4.82537V4.68948C23.8313 4.01002 24.1665 3.48005 24.8369 3.09956C25.5163 2.71907 26.4585 2.52882 27.6634 2.52882C28.9136 2.52882 29.8739 2.72812 30.5443 3.12674C31.2147 3.52535 31.5499 4.10062 31.5499 4.85255V4.93408H29.661V4.85255C29.661 4.59888 29.4979 4.4177 29.1718 4.30898C28.8547 4.19121 28.3338 4.13233 27.609 4.13233C27.0202 4.13233 26.5672 4.17309 26.2501 4.25463C25.9331 4.33616 25.7745 4.45393 25.7745 4.60794V4.68948C25.7745 4.82537 25.847 4.92955 25.9919 5.00202C26.146 5.0745 26.3951 5.12886 26.7393 5.16509L28.5195 5.34175C29.5885 5.45046 30.3631 5.66336 30.8432 5.98044C31.3324 6.29751 31.577 6.75501 31.577 7.35293V7.48882C31.577 8.17733 31.2328 8.71184 30.5443 9.09233C29.8558 9.47282 28.9 9.66307 27.677 9.66307Z" fill="#1F5DEF"/>
<path d="M19.8944 0H21.7944V1.9H19.8944V0Z" fill="#00BBFF"/>
<path d="M21.7944 2.66V9.5H19.8944V2.66H21.7944Z" fill="#1F5DEF"/>
</svg>
