<svg width="131" height="47" viewBox="0 0 131 47" fill="none" xmlns="http://www.w3.org/2000/svg">
<g clip-path="url(#clip0_259_2725)">
<path d="M122.701 0H8.2985C3.71537 0 0 3.81461 0 8.52017V38.4798C0 43.1854 3.71537 47 8.2985 47H122.701C127.285 47 131 43.1854 131 38.4798V8.52017C131 3.81461 127.285 0 122.701 0Z" fill="black"/>
<path d="M22.7735 26.8186H23.2486C23.8435 26.8186 24.3231 26.3126 24.3231 25.6881V16.8989C24.3231 16.7303 24.4563 16.5935 24.6161 16.5935H40.4805C40.6403 16.5935 40.7735 16.7303 40.7735 16.8989V25.6881C40.7735 26.3126 41.2575 26.8186 41.848 26.8186H42.3187C42.9137 26.8186 43.3932 26.3126 43.3932 25.6881V14.9661C43.3932 14.3415 42.9092 13.8355 42.3187 13.8355H22.7735C22.1785 13.8355 21.699 14.3415 21.699 14.9661V25.6881C21.699 26.3126 22.1829 26.8186 22.7735 26.8186Z" fill="white"/>
<path d="M66.0017 22.8572C66.3125 23.6413 66.7432 24.3388 67.2848 24.9223C67.8265 25.5058 68.4659 25.9754 69.1896 26.3127C69.9178 26.6501 70.7037 26.8233 71.5251 26.8233H85.5735C86.1507 26.8233 86.6169 26.3173 86.6169 25.6927V25.1958C86.6169 24.5713 86.1507 24.0653 85.5735 24.0653H71.5251C71.05 24.0653 70.6016 23.965 70.1887 23.7735C69.7713 23.5775 69.4028 23.304 69.0875 22.9666C68.7767 22.6293 68.5236 22.2281 68.3416 21.7768C68.164 21.3346 68.0707 20.8468 68.0707 20.3317C68.0707 19.8166 68.1595 19.3334 68.3416 18.8866C68.5236 18.4307 68.7767 18.0296 69.0875 17.6968C69.3983 17.3595 69.7669 17.0905 70.1887 16.8899C70.5972 16.6939 71.05 16.5982 71.5207 16.5982H85.5691C86.1463 16.5982 86.6125 16.0921 86.6125 15.4676V14.9707C86.6125 14.3462 86.1463 13.8402 85.5691 13.8402H71.5207C70.7037 13.8402 69.9178 14.0134 69.1852 14.3507C68.4615 14.6881 67.8177 15.1531 67.276 15.7411C66.7343 16.3246 66.3036 17.0221 65.9928 17.8062C65.6775 18.5949 65.5177 19.4473 65.5177 20.3317C65.5177 21.2161 65.6775 22.0686 65.9928 22.8572H66.0017Z" fill="white"/>
<path d="M90.6632 26.8186H91.0806C91.6445 26.8186 92.1018 26.3126 92.1018 25.6881V22.0047C92.1018 21.836 92.2261 21.6992 92.3771 21.6992H97.9183C97.9627 21.6992 98.0116 21.7129 98.0515 21.7357L106.181 26.65C106.328 26.7366 106.492 26.7867 106.661 26.7867L108.588 26.8141C108.881 26.8232 109.161 26.5907 109.236 26.2625C109.312 25.9388 109.178 25.5969 108.921 25.4419L101.311 20.596C101.097 20.4684 100.955 20.3772 100.862 20.3088C100.973 20.245 101.115 20.1675 101.244 20.0946L108.947 15.2168C109.214 15.0572 109.347 14.7153 109.272 14.3917C109.196 14.0634 108.93 13.8355 108.628 13.8355H106.776C106.608 13.8355 106.439 13.8811 106.288 13.9723L98.0471 18.9184C98.0071 18.9412 97.9583 18.9549 97.9139 18.9549H92.3727C92.2217 18.9549 92.0974 18.8181 92.0974 18.6495V14.9661C92.0974 14.3415 91.64 13.8355 91.0762 13.8355H90.6588C90.0949 13.8355 89.6376 14.3415 89.6376 14.9661V25.6881C89.6376 26.3126 90.0949 26.8186 90.6588 26.8186H90.6632Z" fill="white"/>
<path d="M53.663 22.7706L51.4341 24.8813C51.0878 25.2141 51.0612 25.6562 51.1855 26.1076C51.2743 26.4449 51.5984 26.8005 52.0913 26.8005H53.0681C53.3878 26.8005 53.703 26.6774 53.9294 26.4631L64.9453 15.9143C65.2916 15.5816 65.3848 15.112 65.1939 14.6881C65.003 14.2595 64.5767 13.9951 64.0839 13.9951H63.3113C62.9872 13.9951 62.6764 14.1182 62.4499 14.337L55.7232 20.7967L48.3882 14.2276C48.1618 14.0271 47.8687 13.9131 47.5579 13.9131H46.8209C46.328 13.9131 45.8885 14.1912 45.7064 14.6197C45.5199 15.0482 45.6309 15.536 45.9906 15.8551L53.6675 22.7752L53.663 22.7706Z" fill="white"/>
<path d="M108.586 33.4962H87.8022C87.5491 32.4751 86.6567 31.7184 85.5822 31.7184C84.6631 31.7184 83.8727 32.2745 83.5042 33.0723H23.057C22.431 33.0723 21.9248 33.592 21.9248 34.2347C21.9248 34.8775 22.431 35.3972 23.057 35.3972H83.6729C84.0859 36.0263 84.7874 36.4411 85.5777 36.4411C86.5368 36.4411 87.3538 35.8348 87.7001 34.9733H108.582C108.977 34.9733 109.301 34.645 109.301 34.2347C109.301 33.8245 108.981 33.4962 108.582 33.4962H108.586Z" fill="white"/>
</g>
<defs>
<clipPath id="clip0_259_2725">
<rect width="131" height="47" fill="white"/>
</clipPath>
</defs>
</svg>
