<svg width="24" height="24" viewBox="0 0 24 24" xmlns="http://www.w3.org/2000/svg">
<path d="M3.2 21C2.595 21 2.07727 20.7799 1.6468 20.3396C1.21633 19.8994 1.00073 19.3695 1 18.75V5.25C1 4.63125 1.2156 4.10175 1.6468 3.6615C2.078 3.22125 2.59573 3.00075 3.2 3H20.8C21.405 3 21.9231 3.2205 22.3543 3.6615C22.7855 4.1025 23.0007 4.632 23 5.25V18.75C23 19.3687 22.7848 19.8986 22.3543 20.3396C21.9238 20.7806 21.4057 21.0007 20.8 21H3.2ZM12 13.125L3.2 7.5V18.75H20.8V7.5L12 13.125ZM12 10.875L20.8 5.25H3.2L12 10.875ZM3.2 7.5V5.25V18.75V7.5Z"/>
</svg>
