<svg width="24" height="24" viewBox="0 0 24 24" xmlns="http://www.w3.org/2000/svg">
<path fill-rule="evenodd" clip-rule="evenodd" d="M7.95026 16.0522C12.1869 20.2879 16.1129 20.7517 17.2654 20.7947C18.6582 20.8454 20.0796 19.7085 20.6944 18.5441C19.7138 17.3939 18.4367 16.5016 17.0384 15.5344C16.2131 16.3584 15.1961 17.8897 13.8419 17.3411C13.0717 17.0315 11.1699 16.1557 9.5083 14.4933C7.84669 12.831 6.97071 10.9306 6.65888 10.1617C6.11015 8.80559 7.64615 7.78657 8.47145 6.96145C7.50401 5.54033 6.62693 4.23049 5.47879 3.29961C4.29759 3.91652 3.15386 5.32662 3.20564 6.73781C3.24862 7.89013 3.7125 11.8153 7.95026 16.0522ZM17.1839 22.9969C15.5972 22.9385 11.1005 22.3172 6.39113 17.6099C1.68287 12.9015 1.06252 8.40679 1.00302 6.81934C0.914872 4.40014 2.76821 2.05035 4.90912 1.13269C5.16693 1.02138 5.44926 0.979008 5.72839 1.00972C6.00753 1.04042 6.27388 1.14316 6.50132 1.30785C8.27311 2.60007 9.49508 4.55767 10.5452 6.09115C10.7636 6.41002 10.8637 6.79521 10.8281 7.18006C10.7924 7.56491 10.6234 7.9252 10.3501 8.19858L8.856 9.69351C9.20308 10.4591 9.90938 11.7789 11.0663 12.9356C12.2233 14.0923 13.5433 14.7985 14.3102 15.1455L15.8032 13.6517C16.0774 13.3773 16.4393 13.2081 16.8257 13.1737C17.2121 13.1393 17.5982 13.2418 17.9166 13.4633C19.4813 14.5473 21.3192 15.7514 22.659 17.4667C22.8371 17.6957 22.9504 17.9683 22.987 18.2561C23.0237 18.5439 22.9823 18.8363 22.8673 19.1026C21.945 21.2541 19.6113 23.0861 17.1839 22.9969Z"/>
</svg>
