<?xml version="1.0" encoding="utf-8"?><svg viewBox="0 0 131 75" xmlns="http://www.w3.org/2000/svg" xmlns:xlink="http://www.w3.org/1999/xlink"><style>:root>svg{display:none}:root>svg:target{display:block}</style><svg viewBox="0 0 32 32" id="about-1" xmlns="http://www.w3.org/2000/svg"><path d="M16.002 13.333a5.333 5.333 0 100-10.667 5.333 5.333 0 000 10.667zm-8.667 4a3.334 3.334 0 100-6.667 3.334 3.334 0 000 6.667zM28.002 14a3.334 3.334 0 11-6.667 0 3.334 3.334 0 016.667 0zm-12 .667a6.666 6.666 0 016.666 6.666v8H9.333v-8a6.667 6.667 0 016.668-6.666zm-9.334 6.666c0-.924.133-1.816.384-2.658l-.227.018a4.667 4.667 0 00-4.157 4.64v6h4v-8zm22.666 8v-6a4.667 4.667 0 00-4.383-4.658c.249.842.384 1.734.383 2.658v8h4z"/></svg><svg viewBox="0 0 32 32" id="about-2" xmlns="http://www.w3.org/2000/svg"><path d="M16 19.3l2.567 1.533c.244.156.483.15.717-.016.234-.166.317-.394.25-.684l-.667-2.9 2.266-1.966c.223-.2.29-.439.2-.716-.089-.278-.289-.428-.6-.451l-2.966-.233L16.6 11.1a.6.6 0 00-.6-.4.6.6 0 00-.6.4l-1.167 2.767-2.966.233c-.311.022-.511.172-.6.45-.09.279-.023.518.2.717l2.266 1.966-.666 2.9c-.067.29.017.517.25.684.234.167.473.173.716.016L16 19.3zm-4.467 7.367H8c-.733 0-1.36-.261-1.883-.783A2.573 2.573 0 015.333 24v-3.533l-2.566-2.6a2.998 2.998 0 01-.567-.883A2.55 2.55 0 012 16c0-.334.067-.662.2-.983a3.04 3.04 0 01.567-.884l2.566-2.6V8c0-.733.262-1.36.784-1.883A2.574 2.574 0 018 5.333h3.533l2.6-2.566c.267-.245.562-.434.884-.567.323-.133.65-.2.983-.2.332 0 .66.067.984.2.324.133.618.322.883.567l2.6 2.566H24a2.57 2.57 0 011.884.784c.523.523.784 1.15.783 1.883v3.533l2.566 2.6c.245.267.434.562.567.884.133.323.2.65.2.983 0 .332-.067.66-.2.984a2.95 2.95 0 01-.567.883l-2.566 2.6V24c0 .733-.261 1.361-.783 1.884a2.561 2.561 0 01-1.884.783h-3.533l-2.6 2.566c-.267.245-.561.434-.883.567-.322.133-.65.2-.984.2a2.54 2.54 0 01-.983-.2 3.038 3.038 0 01-.884-.567l-2.6-2.566z"/></svg><svg viewBox="0 0 32 32" id="about-3" xmlns="http://www.w3.org/2000/svg"><path d="M31.807 14.856C28.794 8.977 22.829 5 16 5 9.17 5 3.204 8.98.193 14.856a1.797 1.797 0 000 1.622C3.206 22.356 9.171 26.333 16 26.333c6.83 0 12.796-3.98 15.807-9.856a1.797 1.797 0 000-1.621zM16 23.666a8 8 0 110-15.999 8 8 0 010 16zm0-13.333a5.296 5.296 0 00-1.406.21 2.658 2.658 0 01-3.717 3.718A5.321 5.321 0 1016 10.333z"/></svg><svg viewBox="0 0 32 32" id="about-4" xmlns="http://www.w3.org/2000/svg"><path d="M16 28.467l-1.934-1.76c-6.867-6.227-11.4-10.347-11.4-15.374C2.666 7.213 5.893 4 9.999 4c2.32 0 4.547 1.08 6 2.773C17.453 5.08 19.68 4 22 4c4.107 0 7.334 3.213 7.334 7.333 0 5.027-4.534 9.147-11.4 15.374l-1.934 1.76z"/></svg><svg fill="none" viewBox="0 0 24 24" id="arrow-left" xmlns="http://www.w3.org/2000/svg"><path d="M15 19l-7-7 7-7"/></svg><svg fill="none" viewBox="0 0 24 24" id="arrow-right" xmlns="http://www.w3.org/2000/svg"><path d="M9 19l7-7-7-7"/></svg><svg fill="none" viewBox="0 0 32 10" id="developer" xmlns="http://www.w3.org/2000/svg"><path d="M14.737 2.529c.788 0 1.472.145 2.052.435.589.28 1.037.684 1.345 1.21.317.525.476 1.14.476 1.847v.136c0 .707-.159 1.327-.476 1.862a3.204 3.204 0 01-1.345 1.223c-.58.28-1.264.421-2.052.421-.96 0-1.753-.25-2.378-.747l-.054.584H10.47V.042h1.97v3.18c.635-.462 1.4-.693 2.297-.693zm1.835 3.492c0-.534-.186-.951-.557-1.25-.372-.299-.893-.448-1.563-.448-.426 0-.82.068-1.182.203-.354.136-.63.322-.83.558v2.01c.209.236.49.427.843.571a3.23 3.23 0 001.169.204c.67 0 1.191-.15 1.563-.448.37-.3.557-.72.557-1.264v-.136zM9.293 2.692v1.74H7.77c-.852 0-1.45.212-1.794.638V9.5H4.02V2.692h1.835l.054.625c.57-.417 1.277-.625 2.12-.625h1.264zM2.052.586V9.5H0V.586h2.052zM27.677 9.663c-1.277 0-2.274-.2-2.99-.598-.706-.408-1.06-.983-1.06-1.726v-.068h1.89v.068c0 .254.172.44.516.557.344.11.901.164 1.671.164 1.268 0 1.903-.182 1.903-.544v-.068c0-.136-.082-.24-.245-.312-.163-.073-.457-.127-.883-.164l-1.753-.176c-1.006-.1-1.74-.308-2.202-.625-.462-.317-.693-.766-.693-1.346V4.69c0-.679.335-1.209 1.006-1.59.68-.38 1.622-.57 2.826-.57 1.25 0 2.21.2 2.881.598.67.398 1.006.974 1.006 1.726v.081H29.66v-.081c0-.254-.163-.435-.49-.544-.316-.118-.837-.177-1.562-.177-.589 0-1.042.041-1.359.123-.317.081-.476.199-.476.353v.081c0 .136.073.24.218.313.154.072.403.127.747.163l1.78.177c1.07.108 1.844.321 2.324.638.49.318.734.775.734 1.373v.136c0 .688-.344 1.223-1.033 1.603-.688.38-1.644.571-2.867.571z" fill="#1F5DEF"/><path d="M19.894 0h1.9v1.9h-1.9V0z" fill="#0BF"/><path d="M21.794 2.66V9.5h-1.9V2.66h1.9z" fill="#1F5DEF"/></svg><svg fill="none" viewBox="0 0 131 47" id="logo" xmlns="http://www.w3.org/2000/svg"><g clip-path="url(#hclip0_259_2725)"><path d="M122.701 0H8.299C3.715 0 0 3.815 0 8.52v29.96C0 43.185 3.715 47 8.299 47H122.7c4.584 0 8.299-3.815 8.299-8.52V8.52c0-4.705-3.715-8.52-8.299-8.52z" fill="#000"/><path d="M22.773 26.819h.476c.595 0 1.074-.506 1.074-1.13v-8.79a.3.3 0 01.293-.306H40.48a.3.3 0 01.294.306v8.79c0 .624.483 1.13 1.074 1.13h.47c.596 0 1.075-.506 1.075-1.13V14.965c0-.624-.484-1.13-1.074-1.13H22.773c-.595 0-1.074.505-1.074 1.13v10.722c0 .625.484 1.13 1.074 1.13zM66.002 22.857c.31.784.741 1.482 1.283 2.065a6.112 6.112 0 001.905 1.39c.728.338 1.514.511 2.335.511h14.048c.578 0 1.044-.506 1.044-1.13v-.497c0-.625-.466-1.13-1.044-1.13H71.525c-.475 0-.923-.101-1.336-.293a3.595 3.595 0 01-1.101-.806 3.867 3.867 0 01-1.017-2.635c0-.515.088-.999.27-1.445.183-.456.436-.857.747-1.19.31-.337.679-.607 1.1-.807a3.065 3.065 0 011.333-.292h14.048c.577 0 1.043-.506 1.043-1.13v-.497c0-.625-.466-1.13-1.043-1.13H71.521c-.817 0-1.603.172-2.336.51a6.062 6.062 0 00-1.909 1.39 6.58 6.58 0 00-1.283 2.065 6.781 6.781 0 00-.475 2.526c0 .884.16 1.737.475 2.525h.009zM90.663 26.819h.418c.563 0 1.02-.506 1.02-1.13v-3.684c0-.169.125-.306.276-.306h5.541c.045 0 .094.014.133.037l8.13 4.914a.946.946 0 00.48.137l1.927.027c.293.01.573-.223.648-.552.076-.323-.058-.665-.315-.82l-7.61-4.846a5.961 5.961 0 01-.449-.287c.111-.064.253-.142.382-.214l7.703-4.878c.267-.16.4-.502.325-.825-.076-.329-.342-.556-.644-.556h-1.852a.944.944 0 00-.488.136l-8.24 4.946a.279.279 0 01-.134.037h-5.541c-.151 0-.276-.137-.276-.305v-3.684c0-.624-.457-1.13-1.02-1.13h-.418c-.564 0-1.021.505-1.021 1.13v10.722c0 .625.457 1.13 1.02 1.13h.005zM53.663 22.77l-2.229 2.111c-.346.333-.373.775-.248 1.227a.937.937 0 00.905.692h.977c.32 0 .635-.123.861-.337l11.016-10.549a1.06 1.06 0 00.249-1.226c-.191-.429-.617-.693-1.11-.693h-.773a1.24 1.24 0 00-.861.342l-6.727 6.46-7.335-6.57a1.25 1.25 0 00-.83-.314h-.737c-.493 0-.932.278-1.115.707-.186.428-.075.916.285 1.235l7.676 6.92-.004-.004zM108.586 33.496H87.802c-.253-1.02-1.145-1.778-2.22-1.778-.919 0-1.71.557-2.078 1.354H23.057c-.626 0-1.132.52-1.132 1.163 0 .642.506 1.162 1.132 1.162h60.616a2.283 2.283 0 001.905 1.044c.959 0 1.776-.606 2.122-1.468h20.882a.729.729 0 00.719-.738c0-.41-.32-.739-.719-.739h.004z" fill="#fff"/></g><defs><clipPath id="hclip0_259_2725"><path fill="#fff" d="M0 0h131v47H0z"/></clipPath></defs></svg><svg viewBox="0 0 24 24" id="mail" xmlns="http://www.w3.org/2000/svg"><path d="M3.2 21c-.605 0-1.123-.22-1.553-.66-.43-.44-.646-.97-.647-1.59V5.25c0-.619.216-1.148.647-1.588A2.1 2.1 0 013.2 3h17.6c.605 0 1.123.22 1.554.662.431.44.647.97.646 1.588v13.5c0 .619-.215 1.149-.646 1.59A2.09 2.09 0 0120.8 21H3.2zm8.8-7.875L3.2 7.5v11.25h17.6V7.5L12 13.125zm0-2.25l8.8-5.625H3.2l8.8 5.625zM3.2 7.5V5.25v13.5V7.5z"/></svg><svg fill="none" viewBox="0 0 75 75" id="seven" xmlns="http://www.w3.org/2000/svg"><rect x=".466" y=".532" width="69" height="69" rx="15.5" transform="rotate(3.788 2.791 70.862) skewX(-.022)" fill="#fff"/><rect x=".466" y=".532" width="69" height="69" rx="15.5" transform="rotate(3.788 2.791 70.862) skewX(-.022)" stroke="#E5E5E5"/><path d="M27.564 58.459l16.943-34.091-13.756-.911-.515 7.73-7.73-.512 1.01-15.156 30.554 2.024-.526 7.912-16.363 33.64-9.617-.636z" fill="#000"/></svg><svg viewBox="0 0 24 24" id="telegram" xmlns="http://www.w3.org/2000/svg"><path fill-rule="evenodd" clip-rule="evenodd" d="M22.977 4.031c.05-.308.018-.624-.093-.916a1.746 1.746 0 00-.538-.74 1.689 1.689 0 00-1.73-.238L1.05 10.524c-1.364.585-1.433 2.593 0 3.199 1.42.602 2.86 1.153 4.319 1.651 1.336.45 2.794.866 3.962.984.32.389.721.764 1.131 1.106a24.901 24.901 0 002.157 1.58c1.559 1.037 3.287 2.029 4.452 2.674 1.393.769 3.06-.116 3.31-1.662L22.977 4.03zm-19.734 8.08l17.306-7.417-2.424 14.957c-1.143-.633-2.79-1.58-4.256-2.556a22.893 22.893 0 01-1.956-1.432 9.138 9.138 0 01-.487-.435l4.532-4.613c.215-.219.336-.515.336-.824 0-.309-.12-.605-.335-.824a1.134 1.134 0 00-1.619 0l-4.963 5.051c-.84-.109-2.009-.426-3.293-.857a55.476 55.476 0 01-2.84-1.05h-.001z"/></svg><svg viewBox="0 0 24 24" id="whatsapp" xmlns="http://www.w3.org/2000/svg"><path fill-rule="evenodd" clip-rule="evenodd" d="M19.794 4.197A10.907 10.907 0 0012.046 1C6.008 1 1.094 5.89 1.092 11.9a10.838 10.838 0 001.462 5.45L1 23l5.807-1.516c1.6.869 3.401 1.326 5.234 1.327h.005c6.037 0 10.952-4.89 10.954-10.901a10.808 10.808 0 00-3.206-7.713zM12.046 20.97h-.003a9.127 9.127 0 01-4.635-1.263l-.332-.197-3.446.9.92-3.344-.217-.343a9.006 9.006 0 01-1.392-4.822c.002-4.995 4.087-9.06 9.109-9.06a9.065 9.065 0 016.437 2.657 8.983 8.983 0 012.664 6.41c-.003 4.997-4.087 9.061-9.105 9.061zm4.994-6.786c-.273-.136-1.62-.795-1.87-.886-.251-.091-.434-.136-.616.136-.182.273-.707.887-.866 1.068-.16.182-.32.205-.593.068-.274-.136-1.156-.424-2.202-1.352-.813-.722-1.363-1.614-1.522-1.887-.16-.272-.017-.42.12-.555.122-.123.273-.319.41-.477.137-.16.182-.273.274-.455.091-.182.045-.34-.023-.477-.068-.136-.615-1.477-.844-2.022-.222-.531-.448-.46-.615-.468-.16-.008-.342-.01-.525-.01s-.48.068-.73.341c-.251.273-.958.932-.958 2.272 0 1.34.98 2.637 1.118 2.819.137.181 1.93 2.932 4.675 4.113.653.28 1.163.448 1.56.574.656.207 1.253.178 1.724.108.526-.079 1.62-.66 1.848-1.296.228-.636.228-1.181.16-1.295-.069-.113-.252-.182-.525-.318v-.001z"/></svg></svg>