<svg width="24" height="24" viewBox="0 0 24 24" xmlns="http://www.w3.org/2000/svg">
<path fill-rule="evenodd" clip-rule="evenodd" d="M22.9772 4.03135C23.0271 3.72305 22.9948 3.40675 22.8839 3.11543C22.7729 2.82411 22.5871 2.56841 22.3461 2.37499C22.105 2.18157 21.8174 2.0575 21.5132 2.0157C21.209 1.97391 20.8993 2.01592 20.6165 2.13735L1.04932 10.5241C-0.314657 11.1088 -0.384458 13.117 1.04932 13.7227C2.46924 14.3249 3.90965 14.8758 5.36784 15.3744C6.70435 15.824 8.16217 16.2399 9.33048 16.3575C9.64973 16.7466 10.0514 17.1216 10.461 17.4641C11.0869 17.9883 11.8399 18.5276 12.618 19.0447C14.1765 20.0814 15.9055 21.0727 17.0704 21.718C18.463 22.4868 20.1302 21.6015 20.3796 20.0558L22.9772 4.03135ZM3.24291 12.1117L20.549 4.69414L18.1254 19.6505C16.9823 19.018 15.3357 18.071 13.8687 17.0948C13.1926 16.6529 12.5398 16.1751 11.9131 15.6633C11.7456 15.524 11.583 15.3787 11.4257 15.2276L15.9581 10.6149C16.1729 10.3965 16.2935 10.1002 16.2936 9.79123C16.2938 9.48224 16.1733 9.18586 15.9587 8.96729C15.7442 8.74872 15.4531 8.62587 15.1495 8.62576C14.846 8.62565 14.5548 8.74829 14.3401 8.96671L9.37739 14.0185C8.53749 13.909 7.36804 13.5922 6.08415 13.1612C5.12835 12.837 4.18131 12.4867 3.24405 12.1106L3.24291 12.1117Z"/>
</svg>
