<svg width="24" height="24" viewBox="0 0 24 24" xmlns="http://www.w3.org/2000/svg">
<path fill-rule="evenodd" clip-rule="evenodd" d="M19.7945 4.19693C17.7267 2.13641 14.9765 1.00107 12.0462 1C6.00816 1 1.09404 5.89001 1.09193 11.9007C1.09089 13.8222 1.59564 15.6976 2.5542 17.3505L1 23L6.80702 21.4841C8.40685 22.3529 10.2084 22.8102 12.0415 22.8108H12.0462C18.0832 22.8108 22.9979 17.9203 23 11.9096C23.001 8.99653 21.8629 6.25801 19.7945 4.19745V4.19693ZM12.0462 20.9698H12.0426C10.409 20.9693 8.80656 20.5322 7.4084 19.7069L7.07594 19.5104L3.62987 20.4099L4.54956 17.0661L4.33314 16.7233C3.42186 15.2806 2.94023 13.6131 2.94127 11.9012C2.94338 6.90562 7.02762 2.84098 12.0499 2.84098C14.4817 2.84205 16.7676 3.78557 18.4866 5.49849C20.2058 7.21089 21.1517 9.48787 21.1507 11.9085C21.1485 16.9046 17.0643 20.9693 12.0462 20.9693V20.9698ZM17.0401 14.1839C16.7665 14.0475 15.4209 13.3889 15.1698 13.2979C14.9187 13.2069 14.7365 13.1615 14.5542 13.4343C14.372 13.7072 13.8473 14.3209 13.6876 14.5022C13.5279 14.6842 13.3683 14.7066 13.0946 14.5702C12.821 14.4337 11.9391 14.1463 10.8933 13.2184C10.0798 12.496 9.53032 11.6043 9.37071 11.3314C9.21102 11.0586 9.35389 10.9112 9.49042 10.7758C9.61332 10.6535 9.76408 10.4575 9.90117 10.2986C10.0383 10.1396 10.0834 10.0257 10.1748 9.84432C10.2662 9.66238 10.2205 9.50358 10.1523 9.36707C10.0839 9.23068 9.53666 7.88988 9.30817 7.34471C9.08596 6.81366 8.86018 6.88578 8.69264 6.8769C8.5329 6.86904 8.35069 6.86749 8.16792 6.86749C7.98514 6.86749 7.68888 6.93541 7.43782 7.20832C7.18676 7.4811 6.47978 8.14029 6.47978 9.48049C6.47978 10.8208 7.46042 12.1166 7.59751 12.2985C7.73456 12.4804 9.52769 15.2314 12.2731 16.4117C12.926 16.6924 13.436 16.8602 13.8336 16.9856C14.4891 17.1932 15.0858 17.1639 15.5574 17.0938C16.0832 17.0155 17.1768 16.4347 17.4047 15.7985C17.6326 15.1624 17.6326 14.6167 17.5643 14.5032C17.4961 14.3899 17.3133 14.3213 17.0397 14.185L17.0401 14.1839Z"/>
</svg>
